<?xml version="1.0" standalone="no"?>
<!DOCTYPE svg PUBLIC "-//W3C//DTD SVG 20010904//EN"
 "http://www.w3.org/TR/2001/REC-SVG-20010904/DTD/svg10.dtd">
<svg version="1.0" xmlns="http://www.w3.org/2000/svg"
 width="260.000000pt" height="260.000000pt" viewBox="0 0 260.000000 260.000000"
 preserveAspectRatio="xMidYMid meet">
<metadata>
Created by potrace 1.11, written by Peter Selinger 2001-2013
</metadata>
<g transform="translate(0.000000,260.000000) scale(0.100000,-0.100000)"
fill="#000000" stroke="none">
<path d="M1477 2422 c-15 -7 -40 -16 -55 -18 -15 -3 -29 -9 -30 -15 -2 -5 -8
-7 -13 -3 -5 3 -9 1 -9 -4 0 -5 -10 -13 -22 -17 -13 -4 -26 -8 -30 -10 -5 -1
-17 -3 -27 -4 -11 0 -27 -8 -35 -17 -9 -8 -16 -13 -16 -11 0 5 -108 -26 -165
-47 -22 -8 -48 -15 -57 -16 -10 0 -18 -4 -18 -9 0 -5 -9 -7 -19 -4 -11 3 -37
-1 -58 -8 -21 -7 -43 -12 -50 -11 -6 1 -14 -2 -18 -8 -3 -5 -21 -10 -38 -10
-75 0 -95 -20 -72 -67 8 -15 16 -39 18 -53 3 -14 14 -45 25 -70 11 -25 27 -76
37 -115 l17 -70 -29 -25 c-15 -14 -40 -34 -55 -45 -21 -15 -28 -29 -30 -60 -3
-56 8 -81 45 -103 40 -24 97 -36 97 -20 0 6 3 9 6 5 11 -11 -7 -87 -21 -87
-19 0 -75 -52 -75 -70 0 -9 -6 -24 -14 -35 -7 -11 -17 -31 -21 -45 -4 -14 -31
-74 -60 -135 -61 -129 -79 -180 -89 -250 -2 -11 -12 -38 -23 -60 -15 -28 -18
-47 -12 -62 4 -12 6 -35 3 -50 -13 -77 -25 -162 -29 -198 -3 -22 -7 -56 -10
-75 -3 -19 -7 -62 -10 -94 -3 -33 -7 -67 -10 -77 -11 -33 -16 -64 -20 -127 -3
-35 -7 -67 -10 -72 -3 -5 -1 -11 4 -15 7 -4 7 -15 1 -30 -5 -14 -8 -25 -5 -25
2 0 -2 -18 -10 -40 l-14 -40 829 0 830 0 -9 23 c-5 12 -11 40 -15 62 -9 64
-14 92 -31 165 -3 11 -16 66 -20 85 -3 11 -10 45 -16 75 -6 30 -15 62 -19 71
-5 9 -4 21 1 26 7 7 5 16 -5 26 -9 9 -12 18 -8 21 5 3 -3 43 -18 88 -58 175
-66 215 -46 246 4 6 0 22 -9 35 -8 13 -13 27 -10 30 3 4 2 5 -2 2 -10 -7 -95
147 -89 162 3 7 -1 13 -9 13 -8 0 -15 7 -15 15 0 8 -4 15 -9 15 -10 0 -71 118
-71 137 0 6 -3 13 -7 15 -12 5 -53 85 -53 102 0 9 6 16 13 16 8 0 8 3 -2 9
-11 7 -10 13 8 32 11 12 21 29 21 37 0 14 28 46 42 48 4 1 11 2 14 3 4 0 1 8
-6 16 -10 12 -10 15 2 15 16 0 32 -27 58 -99 9 -25 21 -46 28 -49 19 -6 45 66
48 130 1 31 5 61 8 67 4 5 4 29 2 53 -7 63 -17 149 -21 178 -4 24 -3 24 10 6
8 -11 15 -23 15 -27 0 -5 11 -20 25 -35 14 -15 28 -38 31 -51 4 -13 12 -23 19
-23 7 0 20 -3 29 -6 29 -11 28 24 -1 83 -15 32 -30 60 -33 63 -3 3 -7 16 -8
29 -2 13 -10 31 -18 39 -8 8 -23 30 -33 51 -23 44 -84 136 -105 156 -8 8 -19
15 -25 15 -6 0 -11 5 -11 10 0 6 -6 10 -13 10 -8 0 -22 9 -31 19 -17 18 -78
53 -101 57 -5 1 -32 8 -60 16 -27 9 -69 15 -93 14 -42 -1 -53 6 -29 21 6 4 25
28 42 52 16 24 35 45 42 48 7 3 13 8 13 12 0 11 -22 9 -53 -7z m73 -1093 c0
-11 7 -30 15 -43 9 -13 17 -32 19 -42 3 -11 8 -28 12 -39 4 -11 -20 9 -54 45
-61 64 -76 87 -48 77 10 -4 13 -1 10 8 -3 7 2 15 13 17 25 6 33 0 33 -23z
m-151 -354 c23 -35 47 -70 54 -77 7 -7 19 -26 27 -42 35 -68 28 -65 84 -42 28
12 62 31 76 44 14 12 34 22 45 21 20 0 20 0 0 -8 -11 -5 -29 -18 -39 -30 -11
-11 -25 -21 -33 -21 -22 0 -157 -70 -166 -86 -11 -20 -28 -18 -20 3 4 9 2 14
-3 10 -5 -3 -22 17 -37 44 -16 27 -25 49 -20 49 4 0 2 4 -6 9 -10 6 -15 27
-15 63 1 77 3 128 8 128 2 0 22 -29 45 -65z"/>
<path d="M1525 1319 c-4 -6 -5 -12 -2 -15 2 -3 7 2 10 11 7 17 1 20 -8 4z"/>
<path d="M1524 1281 c7 -11 46 -35 46 -28 0 3 -12 12 -26 22 -15 9 -23 12 -20
6z"/>
<path d="M1467 2333 c-4 -3 -7 -11 -7 -17 0 -6 5 -5 12 2 6 6 9 14 7 17 -3 3
-9 2 -12 -2z"/>
<path d="M1890 1801 c0 -5 7 -11 14 -14 10 -4 13 -1 9 9 -6 15 -23 19 -23 5z"/>
</g>
</svg>
